<svg id="Layer_1" height="512" viewBox="0 0 128 128" width="512" xmlns="http://www.w3.org/2000/svg" data-name="Layer 1"><path d="m112.5 33.217h-89.425a1.75 1.75 0 0 0 -1.75 1.75v5.361h-5.825a1.75 1.75 0 0 0 -1.75 1.75v50.955a1.75 1.75 0 0 0 1.75 1.75h89.426a1.75 1.75 0 0 0 1.75-1.75v-5.361h5.824a1.75 1.75 0 0 0 1.75-1.75v-50.955a1.75 1.75 0 0 0 -1.75-1.75zm-95.25 58.066v-47.455h85.926v47.455zm93.5-7.111h-4.074v-42.094a1.75 1.75 0 0 0 -1.75-1.75h-80.1v-3.611h85.924z"/><path d="m97.942 53.207a4.555 4.555 0 0 1 -4.55-4.55 1.75 1.75 0 0 0 -1.75-1.75h-62.859a1.75 1.75 0 0 0 -1.75 1.75 4.555 4.555 0 0 1 -4.549 4.55 1.75 1.75 0 0 0 -1.75 1.75v25.2a1.75 1.75 0 0 0 1.75 1.75 4.555 4.555 0 0 1 4.549 4.549 1.75 1.75 0 0 0 1.75 1.75h62.86a1.75 1.75 0 0 0 1.75-1.75 4.555 4.555 0 0 1 4.55-4.549 1.75 1.75 0 0 0 1.75-1.75v-25.2a1.75 1.75 0 0 0 -1.751-1.75zm-25.958 14.349c0 9.455-5.281 17.147-11.772 17.147s-11.771-7.692-11.771-17.147 5.28-17.148 11.771-17.148 11.772 7.692 11.772 17.148zm-41.643 17.144a8.076 8.076 0 0 0 -6.108-6.1v-22.084a8.077 8.077 0 0 0 6.108-6.108h21.377c-4.083 3.71-6.777 10.011-6.777 17.148s2.694 13.437 6.777 17.144zm65.851-6.1a8.077 8.077 0 0 0 -6.108 6.1h-21.376c4.084-3.71 6.777-10.01 6.777-17.147s-2.693-13.438-6.777-17.148h21.376a8.078 8.078 0 0 0 6.108 6.108z"/><path d="m53.364 62.444a6.855 6.855 0 0 0 5.1 6.614v6.426a3.339 3.339 0 0 1 -1.6-2.842 1.75 1.75 0 0 0 -3.5 0 6.855 6.855 0 0 0 5.1 6.614v1.074a1.75 1.75 0 0 0 3.5 0v-1.075a6.839 6.839 0 0 0 0-13.227v-6.428a3.339 3.339 0 0 1 1.6 2.841 1.75 1.75 0 0 0 3.5 0 6.854 6.854 0 0 0 -5.1-6.613v-1.047a1.75 1.75 0 0 0 -3.5 0v1.051a6.854 6.854 0 0 0 -5.1 6.612zm10.2 10.2a3.339 3.339 0 0 1 -1.6 2.842v-5.686a3.339 3.339 0 0 1 1.598 2.842zm-5.101-13.044v5.683a3.324 3.324 0 0 1 0-5.683z"/></svg>